<svg width="12118" height="3648" viewBox="0 0 12118 3648" fill="none" xmlns="http://www.w3.org/2000/svg">
<g clip-path="url(#clip0_33_21)">
<path fill-rule="evenodd" clip-rule="evenodd" d="M7517.09 2852.92C6815.55 3371.64 5795.13 3648 4915.02 3648C3682.01 3648 2576.56 3193.06 1734.71 2436.25C1670.94 2376.73 1726.21 2295.94 1806.99 2342.71C2712.62 2869.93 3830.82 3184.56 4987.3 3184.56C5765.37 3184.56 6624.22 3022.99 7415.05 2687.1C7534.1 2640.34 7631.89 2767.89 7517.09 2852.92Z" fill="#FF9900"/>
<path fill-rule="evenodd" clip-rule="evenodd" d="M7810.46 2517.03C7721.18 2402.24 7215.22 2461.76 6989.87 2491.53C6921.85 2500.03 6909.09 2440.5 6972.87 2397.99C7376.78 2113.12 8035.8 2198.15 8112.33 2291.69C8188.87 2385.23 8091.08 3048.5 7712.67 3363.13C7653.15 3409.9 7597.87 3384.39 7623.38 3320.62C7708.42 3108.03 7899.75 2636.08 7810.46 2517.03Z" fill="#FF9900"/>
<path fill-rule="evenodd" clip-rule="evenodd" d="M7002.63 399.664V123.3C7002.63 80.783 7032.39 55.2722 7070.66 55.2722L8303.66 55.2722C8341.93 55.2722 8375.94 85.0347 8375.94 123.3V357.147C8375.94 395.412 8341.93 446.434 8282.41 531.468L7644.64 1441.34C7882.74 1437.09 8133.59 1471.1 8346.18 1590.15C8392.95 1615.66 8405.71 1658.18 8409.96 1696.45V1989.82C8409.96 2032.33 8367.44 2079.1 8320.67 2053.59C7942.27 1853.76 7436.31 1832.5 7019.64 2057.85C6977.12 2079.1 6930.35 2036.59 6930.35 1994.07V1713.45C6930.35 1670.94 6930.35 1594.41 6977.12 1526.38L7716.92 467.692L7074.91 467.692C7036.64 467.692 7002.63 437.93 7002.63 399.664V399.664ZM2508.53 2113.12H2134.38C2100.36 2108.87 2070.6 2083.36 2066.35 2049.34L2066.35 127.552C2066.35 89.2867 2100.36 59.5242 2138.63 59.5242L2487.27 59.5242C2525.54 59.5242 2551.05 89.2864 2555.3 123.3V374.153H2563.8C2653.09 131.804 2827.41 17.0067 3057.01 17.0067C3290.85 17.0067 3439.66 131.804 3541.71 374.153C3630.99 131.804 3839.33 17.0067 4060.42 17.0067C4217.73 17.0067 4387.8 80.783 4494.1 229.594C4613.15 391.161 4587.64 625.007 4587.64 833.343V2049.34C4587.64 2087.61 4553.62 2117.37 4515.36 2117.37H4145.45C4107.19 2113.12 4077.43 2083.36 4077.43 2049.34L4077.43 1028.92C4077.43 948.139 4085.93 744.055 4068.92 667.524C4039.16 539.971 3958.38 501.706 3847.83 501.706C3758.55 501.706 3660.76 561.231 3622.49 659.021C3584.22 756.811 3588.48 918.377 3588.48 1028.92L3588.48 2049.34C3588.48 2087.61 3554.46 2117.37 3516.2 2117.37H3142.04C3103.78 2113.12 3074.01 2083.36 3074.01 2049.34L3074.01 1028.92C3074.01 816.335 3108.03 497.454 2844.42 497.454C2576.56 497.454 2585.06 803.58 2585.06 1028.92L2585.06 2049.34C2580.81 2083.36 2551.05 2113.12 2508.53 2113.12V2113.12ZM9438.88 17.0067C9995.86 17.0067 10297.7 493.202 10297.7 1101.2C10297.7 1687.94 9966.1 2155.64 9438.88 2155.64C8894.66 2155.64 8597.04 1679.44 8597.04 1084.2C8592.78 484.699 8894.66 17.0067 9438.88 17.0067ZM9438.88 412.419C9162.52 412.419 9145.51 790.825 9145.51 1024.67C9145.51 1258.52 9141.26 1760.22 9434.63 1760.22C9723.75 1760.22 9740.76 1356.31 9740.76 1109.71C9740.76 948.14 9732.25 752.56 9685.48 599.497C9642.96 463.441 9557.93 412.419 9438.88 412.419ZM11016.3 2113.12H10642.1C10603.9 2108.87 10574.1 2079.1 10574.1 2045.09V119.048C10578.4 85.0344 10608.1 55.2722 10646.4 55.2722L10995 55.2722C11029 55.2722 11054.5 80.7835 11063 110.546V403.916H11071.6C11177.8 140.308 11322.4 17.0067 11581.8 17.0067C11747.6 17.0067 11913.4 76.5307 12019.7 242.349C12117.5 395.412 12117.5 654.769 12117.5 841.846V2053.59C12113.2 2087.61 12083.5 2113.12 12045.2 2113.12H11671C11637 2108.87 11607.3 2083.36 11603 2053.59V1007.66C11603 795.076 11628.5 488.951 11369.2 488.951C11279.9 488.951 11194.9 548.476 11152.3 642.014C11101.3 761.063 11092.8 875.859 11092.8 1007.66V2045.09C11088.6 2083.36 11054.5 2113.12 11016.3 2113.12V2113.12ZM6020.48 1194.74C6020.48 1339.3 6024.73 1462.6 5952.45 1594.41C5892.92 1700.7 5799.38 1764.48 5693.09 1764.48C5548.53 1764.48 5463.5 1653.93 5463.5 1492.36C5463.5 1173.48 5748.36 1113.96 6020.48 1113.96V1194.74ZM6398.88 2108.87C6373.37 2130.13 6339.36 2134.38 6309.59 2117.37C6186.29 2015.33 6160.78 1964.31 6092.75 1866.52C5888.67 2074.85 5739.86 2138.63 5476.25 2138.63C5161.62 2138.63 4915.02 1943.05 4915.02 1556.14C4915.02 1250.01 5080.84 1045.93 5314.69 943.887C5518.77 854.601 5803.64 837.595 6020.48 812.084V765.315C6020.48 676.028 6028.98 569.734 5973.71 493.203C5926.94 425.175 5841.9 395.412 5765.37 395.412C5620.81 395.412 5493.26 467.693 5463.5 620.755C5454.99 654.769 5433.73 688.782 5399.72 688.782L5038.32 650.517C5008.56 642.013 4974.55 620.755 4983.05 573.986C5068.08 131.804 5463.5 0 5820.64 0C6003.47 0 6241.57 46.769 6386.13 187.077C6568.95 357.147 6551.94 586.741 6551.94 833.343V1415.83C6551.94 1590.15 6624.22 1666.69 6692.25 1764.48C6717.76 1798.49 6722.01 1841.01 6692.25 1862.27C6611.47 1926.04 6475.41 2045.09 6398.88 2108.87V2108.87ZM1109.71 1194.74C1109.71 1339.3 1113.96 1462.6 1041.68 1594.41C982.154 1700.7 888.615 1764.48 782.321 1764.48C637.762 1764.48 552.727 1653.93 552.727 1492.36C552.727 1173.48 837.595 1113.96 1109.71 1113.96V1194.74ZM1483.86 2108.87C1458.35 2130.13 1424.34 2134.38 1394.57 2117.37C1271.27 2015.33 1245.76 1964.31 1177.73 1866.52C973.65 2074.85 824.839 2138.63 561.231 2138.63C246.601 2138.63 0 1943.05 0 1556.14C0 1250.01 165.818 1045.93 399.664 943.887C603.748 854.601 888.615 837.595 1105.45 812.084V765.315C1105.45 676.028 1113.96 569.734 1058.69 493.203C1011.92 425.175 926.881 395.412 850.35 395.412C705.79 395.412 578.238 467.693 548.475 620.755C539.972 654.769 518.713 688.782 484.699 688.782L123.3 650.517C93.5382 642.013 59.5247 620.755 68.0282 573.986C153.063 131.804 548.476 0 905.623 0C1088.45 0 1326.55 46.769 1471.11 187.077C1653.93 357.147 1636.92 586.741 1636.92 833.343L1636.92 1415.83C1636.92 1590.15 1709.2 1666.69 1777.23 1764.48C1802.74 1798.49 1806.99 1841.01 1777.23 1862.27C1696.45 1926.04 1560.39 2045.09 1483.86 2108.87V2108.87Z" fill="white"/>
</g>
<defs>
<clipPath id="clip0_33_21">
<rect width="12117.5" height="3648" fill="white"/>
</clipPath>
</defs>
</svg>
