<svg width="100" height="100" viewBox="0 0 100 100" fill="none" xmlns="http://www.w3.org/2000/svg">
<path fill-rule="evenodd" clip-rule="evenodd" d="M88.475 88.3125C78.1344 95.9375 63.15 100 50.25 100C32.125 100 15.8687 93.3125 3.54687 82.1781C2.60937 81.3031 3.44687 80.1094 4.60937 80.7906C17.9062 88.5312 34.375 93.1875 51.3312 93.1875C63.5767 93.1311 75.6901 90.6544 86.975 85.9C88.725 85.1562 90.1937 87.0469 88.475 88.3156M92.775 83.3937C91.4625 81.7062 84.0375 82.5969 80.7125 82.9875C79.6969 83.1125 79.5437 82.2281 80.4562 81.5937C86.3937 77.4375 96.0625 78.6344 97.1937 80.0312C98.325 81.4281 96.9 91.1562 91.35 95.7937C90.4969 96.5062 89.6844 96.1281 90.1 95.1812C91.35 92.0687 94.1437 85.0875 92.8187 83.3937" fill="#FF9900"/>
<path fill-rule="evenodd" clip-rule="evenodd" d="M57.5937 43.325C57.5937 48.6125 57.7281 53.0219 55.0562 57.7156C52.8687 61.5281 49.4312 63.8812 45.6656 63.8812C40.4562 63.8812 37.4031 59.9125 37.4031 54.0531C37.4031 42.4906 47.7656 40.3875 57.5968 40.3875V43.325M71.2843 76.4C70.3875 77.2031 69.0906 77.2594 68.0781 76.725C63.5781 72.9844 62.7531 71.2469 60.2906 67.6781C52.8468 75.2719 47.5594 77.5437 37.9219 77.5437C26.4906 77.5437 17.6156 70.5 17.6156 56.3969C17.6156 45.3844 23.5687 37.8844 32.0844 34.2187C39.45 30.975 49.7406 30.4062 57.6 29.5312V27.8125C57.6 24.5875 57.85 20.7688 55.9437 17.9844C54.3031 15.4844 51.1312 14.4531 48.3281 14.4531C43.1562 14.4531 38.5562 17.1094 37.4312 22.6031C37.2031 23.8531 36.3062 25.0281 35.0656 25.0844L21.875 23.6094C20.7687 23.3594 19.5312 22.4656 19.8531 20.7969C22.9 4.8125 37.3281 0 50.2312 0C56.8343 0 65.4625 1.75625 70.6687 6.75625C77.2719 12.9219 76.6437 21.1469 76.6437 30.1V51.25C76.6437 57.6062 79.2781 60.3906 81.7594 63.8281C82.6187 65.0781 82.8093 66.5156 81.7031 67.4344C78.2007 70.396 74.7338 73.3993 71.3031 76.4437L71.2843 76.4063" fill="white"/>
</svg>
