<svg width="100" height="100" viewBox="0 0 100 100" fill="none" xmlns="http://www.w3.org/2000/svg">
<g clip-path="url(#clip0_9_617)">
<path fill-rule="evenodd" clip-rule="evenodd" d="M48.8438 98.0875L26.5469 90.0875V57.4156L48.8438 65.0094V98.0875ZM52.9062 98.0875L75.2031 90.0875V57.4156L52.9062 65.0156V98.0875ZM28.8437 54.9625L51.3438 48.6094L72.2687 55.3594L51.3438 62.4625L28.8437 54.9625ZM22.3062 52.4625L0 44.4375V11.7188L22.2969 19.3125L22.3062 52.4625ZM26.3906 52.4625L48.6875 44.4625V11.7188L26.3844 19.35L26.3906 52.4625ZM2.32812 9.3375L24.8281 2.95312L45.7531 9.70313L24.8281 16.8062L2.32812 9.3375ZM74.3656 52.4625L52.0688 44.4625V11.7188L74.3656 19.3125V52.4625ZM78.4281 52.4625L100.725 44.4625V11.7188L78.4281 19.3125V52.4625ZM54.3656 9.3375L76.8656 2.98437L97.7906 9.73438L76.8656 16.8375L54.3656 9.3375Z" fill="#FF9900"/>
</g>
<defs>
<clipPath id="clip0_9_617">
<rect width="100" height="100" fill="white"/>
</clipPath>
</defs>
</svg>
