<svg width="100" height="100" viewBox="0 0 100 100" fill="none" xmlns="http://www.w3.org/2000/svg">
<path d="M72.2889 9.21668C66.4 9.21668 61.6167 7.4889 61.6167 5.32779V25.8833C61.6167 28 66.3111 29.7167 72.1333 29.7722H72.2889C78.1778 29.7722 82.9611 28.0445 82.9611 25.8833V5.35001C82.9444 7.4889 78.1722 9.21668 72.2889 9.21668Z" fill="url(#paint0_linear_12_45)"/>
<path d="M82.9445 5.35C82.9445 7.48889 78.1722 9.23889 72.2722 9.23889C66.3722 9.23889 61.6167 7.51111 61.6167 5.35C61.6167 3.18889 66.3889 1.48889 72.2889 1.48889C78.1889 1.48889 82.9611 3.22222 82.9611 5.37778" fill="#E8E8E8"/>
<path d="M80.4556 5.0389C80.4556 6.40001 76.7945 7.49445 72.2778 7.49445C67.7611 7.49445 64.1056 6.38334 64.1056 5.0389C64.1056 3.69445 67.7778 2.58334 72.2889 2.58334C76.8 2.58334 80.4611 3.69445 80.4611 5.0389" fill="#50E6FF"/>
<path d="M72.2889 5.60554C70.0929 5.55641 67.9039 5.8718 65.8111 6.53888C67.8981 7.23364 70.0899 7.56072 72.2889 7.50554C74.4838 7.55521 76.6711 7.22825 78.7555 6.53888C76.6666 5.87141 74.4813 5.55599 72.2889 5.60554Z" fill="#198AB3"/>
<path d="M97.9 55.3C97.7611 50.6776 95.9835 46.2551 92.8846 42.8224C89.7858 39.3898 85.5675 37.1705 80.9833 36.5611C80.7043 30.1024 77.8908 24.014 73.1526 19.6159C68.4145 15.2179 62.1338 12.8647 55.6722 13.0667C50.4498 12.9714 45.3267 14.501 41.0113 17.4439C36.696 20.3869 33.4015 24.5977 31.5833 29.4944C26.0579 30.1602 20.9542 32.7845 17.1981 36.8913C13.442 40.998 11.2824 46.315 11.1111 51.8778C11.3513 58.1255 14.0597 64.0229 18.6422 68.2763C23.2248 72.5297 29.3073 74.7919 35.5556 74.5667C36.2778 74.5667 36.9944 74.5278 37.7056 74.4722H77.2722C77.6237 74.4649 77.9729 74.4126 78.3111 74.3167C83.3979 74.2828 88.275 72.2859 91.9249 68.7426C95.5748 65.1993 97.7154 60.3835 97.9 55.3Z" fill="url(#paint1_linear_12_45)"/>
<path d="M96.0167 17.65C94.0938 15.3216 91.4276 13.7265 88.4667 13.1333V19.1611C89.6166 19.5524 90.637 20.2519 91.4167 21.1833C96.3222 27.6167 87.4056 48.7056 61.7389 68.4389C36.0722 88.1722 13.4722 91.3333 8.56667 84.8944C6.16112 81.7389 7.14445 75.0278 11.7556 66.7C10.4578 64.8083 9.41542 62.7535 8.65556 60.5889C1.48889 71.9278 -0.705552 82.2556 3.96112 88.4056C12.4 99.4667 39.8444 92.5889 65.2667 73.0389C90.6889 53.4889 104.444 28.7111 96.0167 17.65Z" fill="#0072C6"/>
<path d="M47.0222 63.2611C36.9222 63.2611 28.7278 60.2944 28.7278 56.6389V91.8833C28.7278 95.5111 36.7833 98.4611 46.7722 98.5111H47.0222C57.1278 98.5111 65.3167 95.5444 65.3167 91.8833V56.6667C65.3167 60.2944 57.1278 63.2611 47.0222 63.2611Z" fill="url(#paint2_linear_12_45)"/>
<path d="M65.3167 56.6667C65.3167 60.3222 57.1278 63.2889 47.0222 63.2889C36.9167 63.2889 28.7278 60.2944 28.7278 56.6667C28.7278 53.0389 36.9222 50 47.0222 50C57.1222 50 65.3167 52.9667 65.3167 56.6278" fill="#E8E8E8"/>
<path d="M61.0444 56.1111C61.0444 58.4389 54.7667 60.3278 47.0222 60.3278C39.2778 60.3278 33 58.4278 33 56.1111C33 53.7944 39.2778 51.8889 47.0222 51.8889C54.7667 51.8889 61.0444 53.7778 61.0444 56.1" fill="#50E6FF"/>
<path d="M47.0222 57.0722C43.2552 56.9824 39.4997 57.5232 35.9111 58.6722C39.4913 59.8631 43.2502 60.427 47.0222 60.3389C50.7943 60.427 54.5532 59.8631 58.1334 58.6722C54.5447 57.5232 50.7892 56.9824 47.0222 57.0722Z" fill="#198AB3"/>
<path d="M58.1444 81.1111V71.4667H55.4889V83.2556H62.5111V81.1111H58.1444ZM37.7778 76.35C37.2472 76.1311 36.7527 75.8333 36.3111 75.4667C36.1914 75.3467 36.0976 75.2034 36.0355 75.0458C35.9734 74.8881 35.9443 74.7194 35.95 74.55C35.9471 74.3801 35.9862 74.2122 36.0637 74.061C36.1412 73.9099 36.2548 73.7801 36.3945 73.6833C36.7516 73.4496 37.1736 73.3348 37.6 73.3556C38.5689 73.3413 39.5183 73.6286 40.3167 74.1778V71.7222C39.3997 71.3935 38.4293 71.239 37.4556 71.2667C36.3405 71.2126 35.2418 71.5507 34.35 72.2222C33.9682 72.5246 33.6628 72.9123 33.4582 73.3542C33.2537 73.7962 33.1557 74.28 33.1722 74.7667C33.2231 75.5458 33.5074 76.2915 33.9879 76.9068C34.4685 77.5221 35.1231 77.9785 35.8667 78.2167C36.495 78.4806 37.0869 78.8242 37.6278 79.2389C37.7618 79.3535 37.8694 79.4958 37.9433 79.6559C38.0171 79.8161 38.0554 79.9903 38.0556 80.1667C38.0608 80.3383 38.0222 80.5084 37.9435 80.661C37.8648 80.8136 37.7485 80.9437 37.6056 81.0389C37.2287 81.2801 36.7856 81.3967 36.3389 81.3722C35.1882 81.3616 34.0805 80.9332 33.2222 80.1667V82.8C34.1688 83.2681 35.2169 83.4934 36.2722 83.4556C37.463 83.5285 38.6445 83.2062 39.6333 82.5389C40.0325 82.2373 40.352 81.8428 40.564 81.3897C40.7761 80.9366 40.8742 80.4386 40.85 79.9389C40.8782 79.206 40.6281 78.4895 40.15 77.9333C39.4737 77.2515 38.6669 76.713 37.7778 76.35ZM52.5722 80.8889C53.151 79.8666 53.4748 78.7199 53.5164 77.5459C53.558 76.3719 53.3161 75.2051 52.8111 74.1444C52.3651 73.2547 51.6703 72.5135 50.8111 72.0111C49.9247 71.5066 48.9198 71.2477 47.9 71.2611C46.818 71.2434 45.7506 71.5117 44.8056 72.0389C43.9045 72.5581 43.1761 73.3309 42.7111 74.2611C42.1999 75.2728 41.9443 76.3944 41.9667 77.5278C41.9545 78.5683 42.1907 79.5968 42.6556 80.5278C43.0905 81.4013 43.7624 82.1348 44.5945 82.6444C45.4494 83.1653 46.4269 83.4509 47.4278 83.4722L49.8722 86.2167H53.3333L49.9167 83.05C51.0334 82.6655 51.9793 81.9005 52.5889 80.8889H52.5722ZM49.9167 80.1667C49.658 80.4931 49.326 80.7537 48.9476 80.9275C48.5691 81.1013 48.155 81.1832 47.7389 81.1667C47.3222 81.1803 46.9084 81.0936 46.5322 80.9137C46.1561 80.7339 45.8288 80.4662 45.5778 80.1333C45.0347 79.3087 44.7452 78.343 44.7452 77.3556C44.7452 76.3681 45.0347 75.4024 45.5778 74.5778C45.8384 74.2394 46.1759 73.9681 46.5624 73.7865C46.9489 73.6048 47.3732 73.518 47.8 73.5333C48.2139 73.5157 48.6257 73.6015 48.9981 73.7829C49.3706 73.9642 49.692 74.2355 49.9333 74.5722C50.4942 75.4068 50.7673 76.4016 50.7111 77.4056C50.7839 78.3887 50.5086 79.3661 49.9333 80.1667H49.9167Z" fill="url(#paint3_radial_12_45)"/>
<defs>
<linearGradient id="paint0_linear_12_45" x1="61.6167" y1="17.5556" x2="82.9611" y2="17.5556" gradientUnits="userSpaceOnUse">
<stop stop-color="#005BA1"/>
<stop offset="0.068" stop-color="#0060A9"/>
<stop offset="0.517" stop-color="#0078D4"/>
<stop offset="0.82" stop-color="#006ABB"/>
<stop offset="1" stop-color="#005BA1"/>
</linearGradient>
<linearGradient id="paint1_linear_12_45" x1="54.5167" y1="74.5667" x2="54.5167" y2="13.0611" gradientUnits="userSpaceOnUse">
<stop stop-color="#198AB3"/>
<stop offset="0.097" stop-color="#209EC5"/>
<stop offset="0.396" stop-color="#2EC7E9"/>
<stop offset="0.775" stop-color="#32D4F5"/>
</linearGradient>
<linearGradient id="paint2_linear_12_45" x1="28.7278" y1="33.5389" x2="65.3167" y2="33.5389" gradientUnits="userSpaceOnUse">
<stop stop-color="#005BA1"/>
<stop offset="0.068" stop-color="#0060A9"/>
<stop offset="0.517" stop-color="#0078D4"/>
<stop offset="0.82" stop-color="#006ABB"/>
<stop offset="1" stop-color="#005BA1"/>
</linearGradient>
<radialGradient id="paint3_radial_12_45" cx="0" cy="0" r="1" gradientUnits="userSpaceOnUse" gradientTransform="translate(48.0389 78.7333) scale(20.1778 20.1778)">
<stop stop-color="#F2F2F2"/>
<stop offset="0.58" stop-color="#EEEEEE"/>
<stop offset="1" stop-color="#E6E6E6"/>
</radialGradient>
</defs>
</svg>
