<svg width="100" height="100" viewBox="0 0 100 100" fill="none" xmlns="http://www.w3.org/2000/svg">
<g clip-path="url(#clip0_9_625)">
<path d="M61.3125 36.1188L51.3031 45.4313L42.0156 26.6969L46.8219 15.9219C48.0719 13.7344 50.0219 13.7594 51.2406 15.9219L61.3125 36.1188Z" fill="#FFA000"/>
<path d="M42.0156 26.6969L51.3031 45.4312L13.8969 80.2281L42.0156 26.6969Z" fill="#F57F17"/>
<path d="M72.2593 21.8844C74.0468 20.1656 75.8968 20.7531 76.3687 23.1875L86.1062 79.7656L53.8312 99.1406C52.7062 99.7656 49.7062 100.034 49.7062 100.034C49.7062 100.034 46.975 99.7094 45.9344 99.0969L13.8969 80.2281L72.2593 21.8844Z" fill="#FFCA28"/>
<path d="M42.0156 26.6969L13.9 80.2282L26.4219 1.99378C26.8844 -0.44372 28.2719 -0.678096 29.5094 1.4719L42.0156 26.6969Z" fill="#FFA000"/>
</g>
<defs>
<clipPath id="clip0_9_625">
<rect width="100" height="100" fill="white"/>
</clipPath>
</defs>
</svg>
