<svg width="100" height="100" viewBox="0 0 100 100" fill="none" xmlns="http://www.w3.org/2000/svg">
<g clip-path="url(#clip0_12_2)">
<path d="M68.7503 11.9318V86.9317C68.7503 95.3238 74.5458 99.9999 80.6822 99.9999C86.364 99.9999 92.614 96.0226 92.614 86.9317V12.5C92.614 4.80681 86.9322 0 80.6822 0C74.4321 0 68.7503 5.30113 68.7503 11.9318Z" fill="#F9AB00"/>
<path d="M37.5001 50V86.9317C37.5001 95.3238 43.2956 99.9999 49.432 99.9999C55.1138 99.9999 61.3639 96.0226 61.3639 86.9317V50.5681C61.3639 42.875 55.682 38.0681 49.432 38.0681C43.182 38.0681 37.5001 43.3693 37.5001 50Z" fill="#E37400"/>
<path d="M18.1819 99.9999C24.7717 99.9999 30.1137 94.6579 30.1137 88.0681C30.1137 81.4783 24.7717 76.1363 18.1819 76.1363C11.5921 76.1363 6.25 81.4783 6.25 88.0681C6.25 94.6579 11.5921 99.9999 18.1819 99.9999Z" fill="#E37400"/>
</g>
<defs>
<clipPath id="clip0_12_2">
<rect width="100" height="100" fill="white"/>
</clipPath>
</defs>
</svg>
