<svg width="100" height="100" viewBox="0 0 100 100" fill="none" xmlns="http://www.w3.org/2000/svg">
<g clip-path="url(#clip0_10_630)">
<path d="M63.6375 32.0125L66.8406 32.0672L75.5437 23.3641L75.9656 19.6766C69.0625 13.5266 59.9484 9.78125 49.9891 9.78125C31.9578 9.78125 16.7391 22.05 12.2344 38.6687C13.1844 38.0062 15.2156 38.5031 15.2156 38.5031L32.6063 35.6437C32.6063 35.6437 33.5 34.1641 33.9531 34.2375C35.9866 32.0034 38.4644 30.2188 41.2278 28.998C43.9911 27.7773 46.979 27.1473 50 27.1484C55.1562 27.1594 59.9063 28.9812 63.6375 31.9953V32.0125Z" fill="#EA4335"/>
<path d="M87.7656 38.7031C85.7453 31.25 81.5813 24.6688 75.9609 19.6766L63.6375 32C68.575 35.9844 71.7422 42.0813 71.7422 48.9063V51.0813C77.7375 51.0813 82.6078 55.9625 82.6078 61.9469C82.6078 67.9422 77.7266 72.8125 71.7422 72.8125H50.0109L47.8359 75V88.0406L50.0109 90.2047H71.7422C79.2332 90.1944 86.4144 87.2141 91.7115 81.9173C97.0086 76.6205 99.9893 69.4394 100 61.9484C99.9891 52.3313 95.1562 43.8234 87.7656 38.7047V38.7031Z" fill="#4285F4"/>
<path d="M28.2578 90.2188H49.9766V72.8125H28.2578C26.7148 72.8128 25.1897 72.4813 23.7859 71.8406L20.65 72.8016L11.9469 81.5047L11.1844 84.4422C16.0889 88.1838 22.0875 90.2091 28.2563 90.2063L28.2578 90.2188Z" fill="#34A853"/>
<path d="M28.2578 33.7031C20.7668 33.7135 13.5856 36.6937 8.28849 41.9905C2.9914 47.2873 0.0107475 54.4684 0 61.9594C0 71.1359 4.39531 79.2953 11.1969 84.4641L23.7969 71.8641C21.8897 71.0041 20.2711 69.6122 19.1351 67.8554C17.9991 66.0986 17.3939 64.0515 17.3922 61.9594C17.3922 55.9641 22.2734 51.0938 28.2578 51.0938C32.6641 51.0938 36.4516 53.75 38.1641 57.5L50.7641 44.9C45.5969 38.0984 37.4359 33.7031 28.2594 33.7031H28.2578Z" fill="#FBBC05"/>
</g>
<defs>
<clipPath id="clip0_10_630">
<rect width="100" height="100" fill="white"/>
</clipPath>
</defs>
</svg>
