<svg width="100" height="100" viewBox="0 0 100 100" fill="none" xmlns="http://www.w3.org/2000/svg">
<g clip-path="url(#clip0_10_653)">
<path d="M96.558 0C99.0266 0 100.692 2.70968 99.717 5.14516L64.9237 94.6048C63.6031 97.879 60.5943 100 57.2703 100H33.4921C31.0234 100 29.2977 97.379 30.2806 94.9436L33.0043 87.9193L38.947 50.621L56.2123 28.0645L65.0063 5.39516C66.3194 2.12097 68.7805 0 72.1045 0H96.558Z" fill="#4285F4"/>
<path d="M57 27.0846C50.8582 20.7537 42.4457 16.897 33.195 17.0021C14.6631 17.2204 -0.203631 33.2942 0.00210994 52.9013C0.200231 72.2011 14.9298 87.7251 33.0731 88C33.1569 87.7574 49.3038 60.8654 49.3038 60.8654C49.3038 60.8654 57 27.1008 57 27.0846Z" fill="#FBBC04"/>
<path d="M56.1798 28C56.1798 28 32.9779 87.994 33 87.994C33.2805 88.002 33.5611 88.002 33.8416 87.994C51.8022 87.7791 66.1973 71.9585 65.998 52.6425C65.902 42.9766 62.1519 34.2661 56.1798 28Z" fill="#EA4335"/>
</g>
<defs>
<clipPath id="clip0_10_653">
<rect width="100" height="100" fill="white"/>
</clipPath>
</defs>
</svg>
