<svg width="293" height="116" fill="none" xmlns="http://www.w3.org/2000/svg" style="--time:5s;--stroke-color:white"><style>@keyframes sign { to { stroke-dashoffset: 0; } }</style><mask id="prefix__path" fill="var(--stroke-color)"><path d="M71.314 22.69c-2.407 9.776-7.362 15.274-13.086 14.847-.683-2.527 1.625-3.413 2.805-4.793 3.75-4.384 5.899-9.458 5.332-15.117C65.316 7.158 55.84 3.553 46.709 4.75 32.052 6.672 22.025 15.5 14.6 27.767c-9.297 15.36-11.946 31.64-6.2 48.805 5.612 16.764 22.081 23.567 37.81 15.649 12.297-6.191 21.847-15.119 25.947-28.807.572-1.909.882-3.87.104-6.223-11.613-.19-23.017 1.84-34.46 3.712-3.06.5-6.86 2.4-9.214-1.847 7.78-5.894 58.75-8.797 61.777-3.652-.238.215-.443.526-.723.624-3.149 1.11-8.023-1.383-9.416 1.381-2.317 4.593-3.527 10.128-3.731 15.324-.495 12.577-2.707 25.242.657 37.774.21.782-.047 1.652-1.033 2.408-3.288-.064-3.931-2.475-4.425-5.267-1.225-6.936-.973-13.93-1.074-20.915-.026-1.773.445-3.62-.607-5.723-4.572 4.25-8.485 9.026-13.815 12.099-12.808 7.384-25.995 9.524-39.22 1.496C6.434 88.205 2.12 77.58.92 66-1.26 44.929 4.788 26.358 20.587 11.784 30.367 2.762 41.94-1.714 55.473 1.702c10.67 2.693 15.824 9.527 15.841 20.988zm99.371 68.14c4.431-6.815 9.791-12.31 16.022-16.83 3.468-2.516 4.742-5.34 3.488-9.798-1.635 1.235-3.104 2.472-4.696 3.522-5.672 3.742-8.596 3.56-13.78-.817-.771-.65-1.505-1.664-2.523-1.343-5.118 1.614-9.778 4.207-14.111 7.32-2.8 2.01-1.727 5.218-1.697 7.923.102 8.938-1.011 17.63-4.975 25.725-3.726 7.61-9.21 10.338-15.048 7.839-6.933-2.968-10.329-11.142-7.315-18.34 3.92-9.363 10.93-16.286 18.873-22.218 3.452-2.577 4.503-5.36 3.274-9.357-12.613 8.424-17.442 7.665-21.177-3.487-1.863.101-3.826.416-5.755.271-4.301-.323-6.876.366-7.528 5.74-.684 5.634-7.843 8.9-12.908 6.937-4.602-1.783-6.374-7.883-3.852-13.26 3.107-6.627 7.09-7.8 13.53-4.744 6.261 2.972 13.068 2.774 19.367.48 3.785-1.38 7.367-2.028 11.164-1.485 2.623.375 4.911 1.026 7.684-.25 2.911-1.34 3.994 1.345 4.451 3.769.518 2.748-.367 5.634.913 9.125 5.46-3.89 12.933-2.807 17.039-9.803 2.641-4.497 8.275-3.385 12.918-2.636 1.809.292 3.605 1.1 5.336.108 4.36-2.496 5.374.484 5.815 3.698.354 2.583.071 5.254.071 8.64 5.346-2.055 9.951-3.77 14.51-5.599 2.47-.99 1.89-3.296 1.854-5.208-.275-14.676.88-29.248 2.998-43.76.311-2.13.408-4.29 2.122-5.928 3.047.045 3.752 1.955 3.335 4.37-2.158 12.486-2.37 25.146-3.502 37.723-.632 7.023-.1 13.995.954 20.91.878 5.766 3.216 6.553 8.118 3.1 6.234-4.39 10.081-11.032 15.36-16.324 1.165-1.168 2.319-2.483 3.741-3.228 3.098-1.622 6.229-1.559 8.469 1.513 2.211 3.032.937 5.771-1.531 7.923-1.709 1.491-3.764 2.586-5.919 4.028 1.87 2.374 4.092 3.851 6.887 3.497 8.753-1.11 15.708-5.284 19.973-13.146 2.315-4.266 12.066-9.54 16.928-8.663 1.225.221 2.387.648 2.658 1.91.377 1.753-1.04 2.162-2.348 2.607-3.864 1.314-8.117 1.746-11.487 4.86 1.932 3.948 6.165 4.46 9.088 6.697 2.018 1.545 5.36 2.451 4.315 5.866-.913 2.983-3.99 3.298-6.634 3.511-2.814.227-5.664.154-8.49.026-1.85-.084-3.656-.54-4.177-3.297 3.917-1.03 8.158.1 12.626-2.024l-10.123-5.355c-14.006 13.82-26.944 14.753-35.651 2.463-2.342 2.791-4.429 5.724-6.957 8.21-8.84 8.692-16.834 6.384-19.851-5.576-.237-.937-.744-1.805-1.34-3.21-5.13 1.94-9.792 4.318-14.108 7.399-1.918 1.369-1.808 3.453-1.728 5.452.279 7.028-.275 13.963-2.105 20.776-.911 3.396-2.118 6.668-4.008 9.648-3.677 5.802-8.732 7.848-13.87 5.657-6.052-2.581-9.925-9.986-8.098-15.962.769-2.519 2.128-4.858 3.411-7.595zm-29.179-6.823c-4.587 4.89-8.662 10.108-10.546 16.698-1.202 4.207.369 8.499 3.723 9.711 4.141 1.496 6.25-1.401 7.899-4.331 4.855-8.63 5.165-18.204 6.041-28.792-2.8 2.6-4.73 4.392-7.117 6.714zm37.365 5.38c-2.323 3.43-4.64 6.85-5.802 10.913-1.288 4.503.126 8.896 3.646 10.113 4.39 1.517 6.412-1.674 8.09-4.76 4.617-8.49 5.044-17.81 5.417-27.622-4.552 3.233-7.742 7.008-11.351 11.356zm-77.673-21.22c1.142 2.127 2.784 2.857 4.888 1.457 2.206-1.467 3.525-3.638 3.132-6.298-.347-2.341-2.593-3.385-4.479-3.168-4.497.517-4.47 3.904-3.541 8.009zm33.623-1.93c3.728-.86 6.152-3.315 8.329-6.34-3.424-2.196-6.362-1.802-8.935.593-1.824 1.697-2.163 3.69.606 5.746zm40.951-5.258c-1.402 1.878-1.618 4.5.671 4.81 4.162.566 6.355-2.903 8.653-5.9-3.382-2.188-6.205-1.66-9.324 1.09z"/></mask><path d="M71.314 22.69c-2.407 9.776-7.362 15.274-13.086 14.847-.683-2.527 1.625-3.413 2.805-4.793 3.75-4.384 5.899-9.458 5.332-15.117C65.316 7.158 55.84 3.553 46.709 4.75 32.052 6.672 22.025 15.5 14.6 27.767c-9.297 15.36-11.946 31.64-6.2 48.805 5.612 16.764 22.081 23.567 37.81 15.649 12.297-6.191 21.847-15.119 25.947-28.807.572-1.909.882-3.87.104-6.223-11.613-.19-23.017 1.84-34.46 3.712-3.06.5-6.86 2.4-9.214-1.847 7.78-5.894 58.75-8.797 61.777-3.652-.238.215-.443.526-.723.624-3.149 1.11-8.023-1.383-9.416 1.381-2.317 4.593-3.527 10.128-3.731 15.324-.495 12.577-2.707 25.242.657 37.774.21.782-.047 1.652-1.033 2.408-3.288-.064-3.931-2.475-4.425-5.267-1.225-6.936-.973-13.93-1.074-20.915-.026-1.773.445-3.62-.607-5.723-4.572 4.25-8.485 9.026-13.815 12.099-12.808 7.384-25.995 9.524-39.22 1.496C6.434 88.205 2.12 77.58.92 66-1.26 44.929 4.788 26.358 20.587 11.784 30.367 2.762 41.94-1.714 55.473 1.702c10.67 2.693 15.824 9.527 15.841 20.988zm99.371 68.14c4.431-6.815 9.791-12.31 16.022-16.83 3.468-2.516 4.742-5.34 3.488-9.798-1.635 1.235-3.104 2.472-4.696 3.522-5.672 3.742-8.596 3.56-13.78-.817-.771-.65-1.505-1.664-2.523-1.343-5.118 1.614-9.778 4.207-14.111 7.32-2.8 2.01-1.727 5.218-1.697 7.923.102 8.938-1.011 17.63-4.975 25.725-3.726 7.61-9.21 10.338-15.048 7.839-6.933-2.968-10.329-11.142-7.315-18.34 3.92-9.363 10.93-16.286 18.873-22.218 3.452-2.577 4.503-5.36 3.274-9.357-12.613 8.424-17.442 7.665-21.177-3.487-1.863.101-3.826.416-5.755.271-4.301-.323-6.876.366-7.528 5.74-.684 5.634-7.843 8.9-12.908 6.937-4.602-1.783-6.374-7.883-3.852-13.26 3.107-6.627 7.09-7.8 13.53-4.744 6.261 2.972 13.068 2.774 19.367.48 3.785-1.38 7.367-2.028 11.164-1.485 2.623.375 4.911 1.026 7.684-.25 2.911-1.34 3.994 1.345 4.451 3.769.518 2.748-.367 5.634.913 9.125 5.46-3.89 12.933-2.807 17.039-9.803 2.641-4.497 8.275-3.385 12.918-2.636 1.809.292 3.605 1.1 5.336.108 4.36-2.496 5.374.484 5.815 3.698.354 2.583.071 5.254.071 8.64 5.346-2.055 9.951-3.77 14.51-5.599 2.47-.99 1.89-3.296 1.854-5.208-.275-14.676.88-29.248 2.998-43.76.311-2.13.408-4.29 2.122-5.928 3.047.045 3.752 1.955 3.335 4.37-2.158 12.486-2.37 25.146-3.502 37.723-.632 7.023-.1 13.995.954 20.91.878 5.766 3.216 6.553 8.118 3.1 6.234-4.39 10.081-11.032 15.36-16.324 1.165-1.168 2.319-2.483 3.741-3.228 3.098-1.622 6.229-1.559 8.469 1.513 2.211 3.032.937 5.771-1.531 7.923-1.709 1.491-3.764 2.586-5.919 4.028 1.87 2.374 4.092 3.851 6.887 3.497 8.753-1.11 15.708-5.284 19.973-13.146 2.315-4.266 12.066-9.54 16.928-8.663 1.225.221 2.387.648 2.658 1.91.377 1.753-1.04 2.162-2.348 2.607-3.864 1.314-8.117 1.746-11.487 4.86 1.932 3.948 6.165 4.46 9.088 6.697 2.018 1.545 5.36 2.451 4.315 5.866-.913 2.983-3.99 3.298-6.634 3.511-2.814.227-5.664.154-8.49.026-1.85-.084-3.656-.54-4.177-3.297 3.917-1.03 8.158.1 12.626-2.024l-10.123-5.355c-14.006 13.82-26.944 14.753-35.651 2.463-2.342 2.791-4.429 5.724-6.957 8.21-8.84 8.692-16.834 6.384-19.851-5.576-.237-.937-.744-1.805-1.34-3.21-5.13 1.94-9.792 4.318-14.108 7.399-1.918 1.369-1.808 3.453-1.728 5.452.279 7.028-.275 13.963-2.105 20.776-.911 3.396-2.118 6.668-4.008 9.648-3.677 5.802-8.732 7.848-13.87 5.657-6.052-2.581-9.925-9.986-8.098-15.962.769-2.519 2.128-4.858 3.411-7.595zm-29.179-6.823c-4.587 4.89-8.662 10.108-10.546 16.698-1.202 4.207.369 8.499 3.723 9.711 4.141 1.496 6.25-1.401 7.899-4.331 4.855-8.63 5.165-18.204 6.041-28.792-2.8 2.6-4.73 4.392-7.117 6.714zm37.365 5.38c-2.323 3.43-4.64 6.85-5.802 10.913-1.288 4.503.126 8.896 3.646 10.113 4.39 1.517 6.412-1.674 8.09-4.76 4.617-8.49 5.044-17.81 5.417-27.622-4.552 3.233-7.742 7.008-11.351 11.356zm-77.673-21.22c1.142 2.127 2.784 2.857 4.888 1.457 2.206-1.467 3.525-3.638 3.132-6.298-.347-2.341-2.593-3.385-4.479-3.168-4.497.517-4.47 3.904-3.541 8.009zm33.623-1.93c3.728-.86 6.152-3.315 8.329-6.34-3.424-2.196-6.362-1.802-8.935.593-1.824 1.697-2.163 3.69.606 5.746zm40.951-5.258c-1.402 1.878-1.618 4.5.671 4.81 4.162.566 6.355-2.903 8.653-5.9-3.382-2.188-6.205-1.66-9.324 1.09z" stroke="var(--stroke-color)" stroke-width="10" stroke-linecap="round" stroke-linejoin="round" mask="url(#prefix__path)" style="animation:sign var(--time) ease infinite;" stroke-dasharray="1851.023" stroke-dashoffset="1851.023"/></svg>