<svg width="127" height="42" viewBox="0 0 127 42" fill="none" xmlns="http://www.w3.org/2000/svg">
<g clip-path="url(#clip0_33_40)">
<path d="M30.8254 14.6518H16.0654V19.0318H26.5354C26.0154 25.1718 20.9054 27.7918 16.0854 27.7918C12.9824 27.7918 10.0064 26.5591 7.81226 24.3649C5.61809 22.1707 4.38541 19.1948 4.38541 16.0918C4.38541 12.9887 5.61809 10.0128 7.81226 7.81861C10.0064 5.62443 12.9824 4.39176 16.0854 4.39176C19.0266 4.38719 21.8549 5.52354 23.9754 7.56176L27.0454 4.38176C24.0801 1.51487 20.0995 -0.0600992 15.9754 0.00175542C13.8624 0.0168574 11.7731 0.447992 9.82679 1.27054C7.88044 2.09309 6.11516 3.29095 4.63175 4.79573C3.14833 6.3005 1.97583 8.08272 1.18118 10.0406C0.386535 11.9985 -0.014691 14.0938 0.000410998 16.2068C0.015513 18.3197 0.446647 20.409 1.2692 22.3554C2.09175 24.3017 3.28961 26.067 4.79438 27.5504C6.29915 29.0338 8.08137 30.2063 10.0393 31.001C11.9972 31.7956 14.0924 32.1969 16.2054 32.1818C24.8154 32.1818 31.1254 26.2818 31.1254 17.5518C31.1432 16.5781 31.0527 15.6054 30.8554 14.6518H30.8254Z" fill="#4885ED"/>
<path d="M42.9154 11.4817C40.8738 11.4897 38.8802 12.1018 37.1859 13.241C35.4917 14.3802 34.1726 15.9955 33.3949 17.8832C32.6173 19.771 32.4159 21.8467 32.8161 23.8487C33.2164 25.8507 34.2003 27.6895 35.644 29.1331C37.0877 30.5768 38.9264 31.5608 40.9284 31.961C42.9305 32.3613 45.0062 32.1599 46.8939 31.3822C48.7817 30.6046 50.3969 29.2855 51.5361 27.5912C52.6753 25.897 53.2875 23.9034 53.2954 21.8617C53.317 20.4927 53.0633 19.1332 52.5493 17.8641C52.0353 16.5949 51.2715 15.442 50.3033 14.4738C49.3351 13.5056 48.1822 12.7418 46.9131 12.2279C45.644 11.7139 44.2845 11.4601 42.9154 11.4817V11.4817ZM42.9754 15.5417C44.2338 15.4676 45.4855 15.7733 46.5681 16.4192C47.6507 17.0651 48.5142 18.0214 49.0467 19.164C49.5792 20.3067 49.756 21.583 49.5543 22.8273C49.3526 24.0717 48.7816 25.2268 47.9155 26.1427C47.0493 27.0586 45.9279 27.6932 44.6967 27.964C43.4655 28.2348 42.1813 28.1294 41.0107 27.6615C39.8402 27.1936 38.8372 26.3848 38.1319 25.3399C37.4266 24.2951 37.0516 23.0624 37.0554 21.8017C37.0134 20.9972 37.1353 20.1925 37.4135 19.4365C37.6918 18.6804 38.1207 17.9888 38.6743 17.4035C39.2278 16.8181 39.8945 16.3513 40.6338 16.0313C41.3732 15.7112 42.1698 15.5447 42.9754 15.5417V15.5417Z" fill="#DB3236"/>
<path d="M65.5354 11.4817C63.4933 11.4877 61.4987 12.0981 59.8032 13.2361C58.1076 14.3741 56.7869 15.9887 56.0078 17.8763C55.2286 19.7639 55.0258 21.8399 55.4249 23.8426C55.824 25.8453 56.8072 27.685 58.2505 29.1296C59.6937 30.5743 61.5325 31.5592 63.5348 31.9603C65.5371 32.3613 67.6133 32.1605 69.5016 31.3832C71.3899 30.6058 73.0058 29.2867 74.1454 27.5922C75.2851 25.8978 75.8975 23.9038 75.9054 21.8617C75.927 20.4935 75.6735 19.1348 75.1602 17.8664C74.6468 16.598 73.8839 15.4455 72.9168 14.4774C71.9496 13.5094 70.7979 12.7454 69.53 12.2308C68.262 11.7162 66.9036 11.4615 65.5354 11.4817ZM65.5954 15.5417C66.8538 15.4676 68.1055 15.7733 69.1881 16.4192C70.2707 17.0651 71.1342 18.0213 71.6667 19.164C72.1992 20.3066 72.376 21.5829 72.1743 22.8273C71.9726 24.0717 71.4016 25.2268 70.5354 26.1427C69.6693 27.0586 68.5479 27.6931 67.3167 27.964C66.0855 28.2348 64.8013 28.1294 63.6307 27.6615C62.4601 27.1936 61.4572 26.3848 60.7519 25.3399C60.0466 24.295 59.6716 23.0623 59.6754 21.8017C59.6334 20.9972 59.7553 20.1925 60.0335 19.4365C60.3118 18.6804 60.7407 17.9888 61.2943 17.4034C61.8478 16.8181 62.5145 16.3513 63.2538 16.0312C63.9931 15.7112 64.7898 15.5447 65.5954 15.5417V15.5417Z" fill="#F4C20D"/>
<path d="M87.7054 11.4917C82.1454 11.4917 77.7754 16.3617 77.7754 21.8217C77.7344 24.4899 78.7406 27.0678 80.5783 29.0027C82.4159 30.9376 84.9387 32.0752 87.6054 32.1717C88.6815 32.2303 89.7562 32.0335 90.7416 31.5973C91.7271 31.161 92.5953 30.4978 93.2754 29.6617V31.6617C93.2754 35.2317 91.1054 37.3617 87.8354 37.3617C86.695 37.3523 85.5833 37.0028 84.6427 36.3579C83.7021 35.713 82.9753 34.8021 82.5554 33.7417L78.5554 35.4017C79.329 37.2231 80.6257 38.774 82.2812 39.8581C83.9367 40.9422 85.8766 41.5107 87.8554 41.4917C93.3854 41.4917 97.5954 38.0117 97.5954 30.7117V12.1117H93.2854V13.8617C92.5785 13.091 91.7148 12.4807 90.7523 12.0719C89.7897 11.6631 88.7508 11.4653 87.7054 11.4917V11.4917ZM88.1054 15.5417C90.8354 15.5417 93.6254 17.8717 93.6254 21.8417C93.6254 25.8117 90.8354 28.1117 88.0454 28.1117C87.2564 28.0917 86.4795 27.913 85.7611 27.5863C85.0426 27.2597 84.3973 26.7917 83.8635 26.2103C83.3298 25.629 82.9185 24.9461 82.6543 24.2025C82.39 23.4588 82.2781 22.6695 82.3254 21.8817C82.3254 17.8817 85.1854 15.5417 88.1054 15.5417V15.5417Z" fill="#4885ED"/>
<path d="M116.905 11.4618C111.665 11.4618 107.255 15.6318 107.255 21.7918C107.204 23.1494 107.429 24.5032 107.918 25.7708C108.407 27.0384 109.149 28.1931 110.098 29.1644C111.048 30.1358 112.186 30.9034 113.442 31.4205C114.699 31.9375 116.047 32.1932 117.405 32.1718C119.109 32.1751 120.788 31.7635 122.297 30.9725C123.806 30.1815 125.099 29.0349 126.065 27.6318L122.485 25.2518C121.967 26.1318 121.225 26.859 120.334 27.3596C119.444 27.8601 118.437 28.1162 117.415 28.1018C116.354 28.1456 115.305 27.871 114.401 27.3132C113.498 26.7553 112.782 25.9399 112.345 24.9718L126.215 19.2218L125.495 17.5318C124.834 15.7762 123.661 14.2598 122.127 13.1792C120.594 12.0986 118.771 11.5038 116.895 11.4718L116.905 11.4618ZM117.085 15.4618C117.868 15.4281 118.644 15.618 119.322 16.0094C120 16.4009 120.553 16.9775 120.915 17.6718L111.655 21.5418C111.61 20.7853 111.714 20.0272 111.962 19.3113C112.211 18.5954 112.599 17.9357 113.104 17.3705C113.609 16.8052 114.22 16.3455 114.904 16.0179C115.587 15.6903 116.329 15.5013 117.085 15.4618V15.4618Z" fill="#DB3236"/>
<path d="M100.645 31.5618H105.205V1.07178H100.645V31.5618Z" fill="#3CBA54"/>
</g>
<defs>
<clipPath id="clip0_33_40">
<rect width="126.215" height="41.4922" fill="white"/>
</clipPath>
</defs>
</svg>
