<svg width="100" height="100" viewBox="0 0 100 100" fill="none" xmlns="http://www.w3.org/2000/svg">
<path d="M80 50.7333C80 48.6667 79.8 46.5333 79.4667 44.5333H50.6V56.3333H67.1333C66.4667 60.1333 64.2667 63.4667 61 65.6L70.8667 73.2667C76.6667 67.8667 80 60 80 50.7333Z" fill="#4280EF"/>
<path d="M50.6 80.6C58.8667 80.6 65.8 77.8667 70.8667 73.2L61 65.6C58.2667 67.4667 54.7333 68.5333 50.6 68.5333C42.6 68.5333 35.8667 63.1333 33.4 55.9333L23.2667 63.7333C28.4667 74.0667 39 80.6 50.6 80.6Z" fill="#34A353"/>
<path d="M33.4 55.8667C32.1333 52.0667 32.1333 47.9333 33.4 44.1333L23.2667 36.2667C18.9333 44.9333 18.9333 55.1333 23.2667 63.7333L33.4 55.8667Z" fill="#F6B704"/>
<path d="M50.6 31.5334C54.9333 31.4667 59.2 33.1334 62.3333 36.1334L71.0667 27.3334C65.5333 22.1334 58.2 19.3334 50.6 19.4C39 19.4 28.4667 25.9334 23.2667 36.2667L33.4 44.1334C35.8667 36.8667 42.6 31.5334 50.6 31.5334Z" fill="#E54335"/>
</svg>
