<svg width="100" height="100" viewBox="0 0 100 100" fill="none" xmlns="http://www.w3.org/2000/svg">
<g clip-path="url(#clip0_4_7)">
<path d="M100 51.1415C100 47.761 99.6667 44.2715 99.1111 41H51V60.3016H78.5556C77.4444 66.5174 73.7778 71.9698 68.3333 75.4594L84.7778 88C94.4444 79.1671 100 66.2993 100 51.1415Z" fill="#4280EF"/>
<path d="M50.9384 100C64.8319 100 76.4846 95.4568 85 87.7L68.4174 75.0676C63.8235 78.1703 57.8852 79.9432 50.9384 79.9432C37.493 79.9432 26.1765 70.9676 22.0308 59L5 71.9649C13.7395 89.1405 31.4426 100 50.9384 100Z" fill="#34A353"/>
<path d="M22 59.1117C19.9178 52.8859 19.9178 46.1141 22 39.8883L5.34247 27C-1.78082 41.199 -1.78082 57.9102 5.34247 72L22 59.1117Z" fill="#F6B704"/>
<path d="M50.7462 20.1142C57.9986 20.0037 65.1395 22.7664 70.3835 27.7392L85 13.1523C75.7392 4.53271 63.4658 -0.108578 50.7462 0.00192866C31.3319 0.00192866 13.7029 10.8316 5 27.9602L21.9596 41C26.0879 28.9547 37.357 20.1142 50.7462 20.1142Z" fill="#E54335"/>
</g>
<defs>
<clipPath id="clip0_4_7">
<rect width="100" height="100" fill="white"/>
</clipPath>
</defs>
</svg>
