<svg width="2500" height="534" viewBox="0 0 2500 534" fill="none" xmlns="http://www.w3.org/2000/svg">
<g clip-path="url(#clip0_33_32)">
<path d="M2500 241.584V197.618H2445.4V129.267L2443.56 129.833L2392.28 145.523L2391.27 145.83V197.62H2310.33V168.769C2310.33 155.334 2313.33 145.054 2319.25 138.198C2325.13 131.424 2333.54 127.98 2344.27 127.98C2351.98 127.98 2359.96 129.796 2367.99 133.378L2370.01 134.278V87.9751L2369.06 87.6268C2361.57 84.9328 2351.37 83.576 2338.74 83.576C2322.81 83.576 2308.34 87.0416 2295.72 93.9098C2283.1 100.788 2273.16 110.606 2266.21 123.09C2259.27 135.559 2255.75 149.961 2255.75 165.898V197.618H2217.74V241.584H2255.75V426.806H2310.33V241.584H2391.27V359.289C2391.27 407.766 2414.14 432.332 2459.23 432.332C2466.64 432.332 2474.44 431.464 2482.41 429.764C2490.51 428.018 2496.03 426.274 2499.28 424.412L2500 423.986V379.613L2497.78 381.081C2494.82 383.055 2491.13 384.668 2486.81 385.867C2482.46 387.089 2478.84 387.701 2476.03 387.701C2465.46 387.701 2457.65 384.854 2452.8 379.236C2447.89 373.568 2445.4 363.655 2445.4 349.787V241.584H2500ZM2095.86 387.708C2076.05 387.708 2060.43 381.139 2049.43 368.201C2038.35 355.197 2032.74 336.658 2032.74 313.103C2032.74 288.801 2038.35 269.78 2049.43 256.546C2060.45 243.4 2075.91 236.728 2095.42 236.728C2114.34 236.728 2129.4 243.1 2140.19 255.678C2151.04 268.322 2156.54 287.19 2156.54 311.775C2156.54 336.663 2151.37 355.78 2141.16 368.569C2131.03 381.26 2115.79 387.708 2095.86 387.708M2098.29 192.096C2060.49 192.096 2030.48 203.17 2009.07 225.011C1987.69 246.854 1976.84 277.081 1976.84 314.861C1976.84 350.745 1987.43 379.609 2008.31 400.637C2029.19 421.672 2057.6 432.327 2092.76 432.327C2129.39 432.327 2158.81 421.099 2180.21 398.956C2201.6 376.837 2212.43 346.895 2212.43 309.998C2212.43 273.553 2202.26 244.474 2182.2 223.586C2162.12 202.689 2133.89 192.096 2098.29 192.096M1888.85 192.096C1863.14 192.096 1841.88 198.672 1825.63 211.637C1809.29 224.679 1801 241.785 1801 262.484C1801 273.243 1802.79 282.801 1806.31 290.907C1809.85 299.04 1815.33 306.201 1822.62 312.211C1829.85 318.172 1841.01 324.416 1855.79 330.769C1868.22 335.884 1877.49 340.211 1883.38 343.621C1889.14 346.963 1893.22 350.322 1895.53 353.594C1897.77 356.796 1898.91 361.178 1898.91 366.586C1898.91 381.984 1887.38 389.476 1863.65 389.476C1854.85 389.476 1844.81 387.638 1833.81 384.015C1822.9 380.447 1812.59 375.222 1803.26 368.523L1800.99 366.898V419.442L1801.83 419.829C1809.55 423.394 1819.28 426.4 1830.76 428.765C1842.21 431.132 1852.62 432.337 1861.66 432.337C1889.56 432.337 1912.02 425.73 1928.41 412.687C1944.91 399.556 1953.27 382.046 1953.27 360.632C1953.27 345.183 1948.77 331.935 1939.9 321.25C1931.09 310.653 1915.79 300.924 1894.47 292.324C1877.48 285.504 1866.59 279.843 1862.1 275.497C1857.77 271.299 1855.57 265.362 1855.57 257.843C1855.57 251.178 1858.29 245.838 1863.85 241.514C1869.47 237.168 1877.28 234.958 1887.08 234.958C1896.17 234.958 1905.48 236.394 1914.73 239.209C1923.98 242.024 1932.1 245.794 1938.88 250.406L1941.11 251.93V202.087L1940.25 201.719C1934 199.037 1925.75 196.742 1915.73 194.88C1905.76 193.03 1896.72 192.096 1888.85 192.096M1658.72 387.708C1638.92 387.708 1623.3 381.139 1612.29 368.201C1601.22 355.197 1595.61 336.663 1595.61 313.103C1595.61 288.801 1601.22 269.78 1612.3 256.546C1623.31 243.4 1638.77 236.728 1658.28 236.728C1677.2 236.728 1692.27 243.1 1703.06 255.678C1713.91 268.322 1719.41 287.19 1719.41 311.775C1719.41 336.663 1714.23 355.78 1704.02 368.569C1693.89 381.26 1678.65 387.708 1658.72 387.708M1661.16 192.096C1623.35 192.096 1593.33 203.17 1571.94 225.011C1550.55 246.854 1539.7 277.081 1539.7 314.861C1539.7 350.76 1550.3 379.609 1571.18 400.637C1592.06 421.672 1620.47 432.327 1655.63 432.327C1692.26 432.327 1721.68 421.099 1743.08 398.956C1764.46 376.837 1775.3 346.895 1775.3 309.998C1775.3 273.553 1765.13 244.474 1745.06 223.586C1724.98 202.689 1696.75 192.096 1661.16 192.096M1456.86 237.308V197.618H1402.95V426.801H1456.86V309.565C1456.86 289.63 1461.38 273.253 1470.3 260.883C1479.1 248.66 1490.84 242.467 1505.16 242.467C1510.02 242.467 1515.47 243.267 1521.37 244.851C1527.22 246.426 1531.45 248.135 1533.95 249.935L1536.21 251.577V197.226L1535.34 196.851C1530.32 194.718 1523.22 193.642 1514.23 193.642C1500.68 193.642 1488.56 197.995 1478.17 206.566C1469.06 214.099 1462.47 224.428 1457.43 237.308H1456.86ZM1306.4 192.096C1281.67 192.096 1259.61 197.4 1240.85 207.855C1222.04 218.334 1207.5 233.294 1197.61 252.317C1187.76 271.294 1182.76 293.461 1182.76 318.182C1182.76 339.836 1187.61 359.708 1197.19 377.222C1206.78 394.765 1220.35 408.489 1237.53 418.008C1254.69 427.515 1274.52 432.334 1296.47 432.334C1322.09 432.334 1343.96 427.212 1361.5 417.111L1362.21 416.704V367.314L1359.94 368.968C1352 374.755 1343.12 379.374 1333.57 382.702C1324.04 386.027 1315.35 387.708 1307.74 387.708C1286.58 387.708 1269.6 381.089 1257.27 368.039C1244.92 354.973 1238.66 336.624 1238.66 313.536C1238.66 290.302 1245.19 271.482 1258.06 257.596C1270.9 243.751 1287.91 236.728 1308.63 236.728C1326.35 236.728 1343.61 242.728 1359.95 254.578L1362.21 256.22V204.179L1361.48 203.768C1355.33 200.326 1346.95 197.485 1336.54 195.33C1326.17 193.18 1316.04 192.096 1306.4 192.096M1145.63 197.62H1091.72V426.801H1145.63V197.62V197.62ZM1119.22 99.9872C1110.35 99.9872 1102.61 103.008 1096.25 108.993C1089.87 114.996 1086.63 122.553 1086.63 131.472C1086.63 140.251 1089.83 147.671 1096.15 153.513C1102.44 159.339 1110.2 162.292 1119.23 162.292C1128.25 162.292 1136.04 159.339 1142.4 153.523C1148.8 147.671 1152.04 140.253 1152.04 131.472C1152.04 122.865 1148.88 115.385 1142.66 109.235C1136.44 103.097 1128.56 99.9872 1119.22 99.9872ZM984.712 180.711V426.801H1039.73V107.003H963.583L866.794 344.54L772.866 107.003H693.618V426.799H745.321V180.686H747.096L846.281 426.801H885.3L982.937 180.711H984.712V180.711Z" fill="#706D6E"/>
<path d="M253.612 253.748H0V0.136841H253.612V253.748Z" fill="#F1511B"/>
<path d="M533.627 253.748H280.021V0.136841H533.627V253.748Z" fill="#80CC28"/>
<path d="M253.604 533.863H0V280.254H253.604V533.863Z" fill="#00ADEF"/>
<path d="M533.627 533.863H280.021V280.254H533.627V533.863Z" fill="#FBBC09"/>
</g>
<defs>
<clipPath id="clip0_33_32">
<rect width="2500" height="534" fill="white"/>
</clipPath>
</defs>
</svg>
